<svg version="1.1" id="Layer_1" xmlns="http://www.w3.org/2000/svg" xmlns:xlink="http://www.w3.org/1999/xlink" x="0px" y="0px" viewBox="0 0 500 500" style="width: 151px;" xml:space="preserve" data-imageid="marketing-1-7" imageName="Marketing 1" class="illustrations_image">
<style type="text/css">
	.st0_marketing-1-7{fill:#68E1FD;}
	.st1_marketing-1-7{fill:#093F68;}
	.st2_marketing-1-7{fill:#FFFFFF;}
	.st3_marketing-1-7{fill:#FFBC0E;}
	.st4_marketing-1-7{fill:#F56132;}
</style>
<g id="email_marketing-1-7">
	<polygon class="st0_marketing-1-7 targetColor" points="80.7,206.8 250,106.3 419.3,206.8 419.3,393.7 80.7,393.7 &#9;" style="fill: rgb(104, 225, 253);"/>
	<path class="st1_marketing-1-7" d="M419.3,395.6H80.7c-1.1,0-1.9-0.9-1.9-1.9l0,0V206.8c0-0.7,0.3-1.3,0.9-1.6L249,104.7c0.6-0.4,1.4-0.4,2,0&#10;&#9;&#9;l169.3,100.5c0.6,0.3,0.9,1,0.9,1.6v186.8C421.2,394.7,420.4,395.6,419.3,395.6z M82.6,391.8h334.8V207.9L250,108.6L82.6,207.9&#10;&#9;&#9;V391.8z"/>
	<rect x="104.5" y="106.3" class="st2_marketing-1-7" width="291.1" height="252.5"/>
	<path class="st1_marketing-1-7" d="M395.5,360.8H104.5c-1.1,0-1.9-0.9-1.9-1.9l0,0V106.3c0-1.1,0.9-1.9,1.9-1.9h291.1c1.1,0,1.9,0.9,1.9,1.9&#10;&#9;&#9;v252.5C397.5,359.9,396.6,360.8,395.5,360.8z M106.4,356.9h287.3V108.2H106.4L106.4,356.9z"/>
	<polygon class="st0_marketing-1-7 targetColor" points="419.3,206.8 250,338.2 419.3,393.7 &#9;" style="fill: rgb(104, 225, 253);"/>
	<path class="st1_marketing-1-7" d="M419.3,395.6c-0.2,0-0.4,0-0.6-0.1L249.4,340c-1-0.3-1.6-1.4-1.2-2.4c0.1-0.4,0.3-0.7,0.6-0.9l169.3-131.4&#10;&#9;&#9;c0.8-0.6,2-0.5,2.7,0.4c0.3,0.3,0.4,0.7,0.4,1.2v186.8C421.2,394.7,420.4,395.6,419.3,395.6C419.3,395.6,419.3,395.6,419.3,395.6&#10;&#9;&#9;L419.3,395.6z M254,337.5L417.4,391V210.7L254,337.5z"/>
	<polygon class="st0_marketing-1-7 targetColor" points="80.7,206.8 250,338.2 80.7,393.7 &#9;" style="fill: rgb(104, 225, 253);"/>
	<path class="st1_marketing-1-7" d="M80.7,395.6c-1,0-1.9-0.8-1.9-1.9c0,0,0,0,0,0V206.8c0-1.1,0.9-1.9,1.9-1.9c0.4,0,0.8,0.1,1.2,0.4l169.3,131.4&#10;&#9;&#9;c0.8,0.6,1,1.9,0.3,2.7c-0.2,0.3-0.6,0.5-0.9,0.6L81.3,395.5C81.1,395.5,80.9,395.6,80.7,395.6z M82.6,210.7V391L246,337.5&#10;&#9;&#9;L82.6,210.7z"/>
	<path class="st0_marketing-1-7 targetColor" d="M419.3,393.7H80.7l155.8-118.1c8-6,19-6,27,0L419.3,393.7z" style="fill: rgb(104, 225, 253);"/>
	<path class="st1_marketing-1-7" d="M419.3,395.6H80.7c-1.1,0-1.9-0.9-1.9-1.9c0-0.6,0.3-1.1,0.7-1.5L235.3,274c8.7-6.6,20.7-6.6,29.4,0&#10;&#9;&#9;l155.8,118.1c0.8,0.6,1,1.9,0.3,2.7C420.5,395.3,419.9,395.6,419.3,395.6L419.3,395.6z M86.3,391.8h327.3L262.4,277.1&#10;&#9;&#9;c-7.3-5.5-17.4-5.5-24.7,0L86.3,391.8z"/>
</g>
<g id="megaphone_marketing-1-7">
	<path class="st1_marketing-1-7" d="M205.2,265.9l-11.7,3.1c-2.7,0.7-5.5-0.9-6.3-3.6c0,0,0,0,0,0l-13.3-50l0,0l21.6-5.7l0,0l13.3,50&#10;&#9;&#9;C209.6,262.3,208,265.2,205.2,265.9C205.2,265.9,205.2,265.9,205.2,265.9z"/>
	<path class="st1_marketing-1-7" d="M195.6,270c-5.3,0-10-3.6-11.3-8.7l-12.1-45.4c-0.3-1,0.3-2.1,1.3-2.3c0,0,0,0,0,0l21.6-5.7&#10;&#9;&#9;c1-0.3,2.1,0.3,2.3,1.3c0,0,0,0,0,0l12.1,45.4c1.7,6.3-2.1,12.7-8.3,14.4l-2.6,0.7C197.6,269.9,196.6,270,195.6,270z M176.4,216.7&#10;&#9;&#9;l11.6,43.6c1.1,4.2,5.5,6.7,9.7,5.6l0,0l2.6-0.7c4.2-1.1,6.7-5.5,5.6-9.7c0,0,0,0,0,0L194.2,212L176.4,216.7z"/>
	<circle class="st3_marketing-1-7" cx="322" cy="191.9" r="28"/>
	<path class="st1_marketing-1-7" d="M322,221.8c-16.5,0-29.9-13.4-29.9-29.9S305.5,162,322,162s29.9,13.4,29.9,29.9c0,0,0,0,0,0&#10;&#9;&#9;C351.9,208.4,338.5,221.7,322,221.8z M322,165.8c-14.4,0-26.1,11.6-26.1,26s11.6,26.1,26,26.1c14.4,0,26.1-11.6,26.1-26&#10;&#9;&#9;c0,0,0,0,0,0C348,177.5,336.4,165.9,322,165.8z"/>
	<polygon class="st2_marketing-1-7" points="215.9,159.9 215.9,223.9 306.5,250 330.5,256.9 330.5,126.8 306.5,133.7 &#9;"/>
	<path class="st1_marketing-1-7" d="M330.5,258.8c-0.2,0-0.4,0-0.5-0.1l-114.6-33.1c-0.8-0.2-1.4-1-1.4-1.8v-64c0-0.9,0.6-1.6,1.4-1.8L330,125&#10;&#9;&#9;c1-0.3,2.1,0.3,2.4,1.3c0.1,0.2,0.1,0.4,0.1,0.5v130.1c0,0.6-0.3,1.2-0.8,1.5C331.3,258.7,330.9,258.8,330.5,258.8z M217.8,222.4&#10;&#9;&#9;l110.8,32v-125l-110.8,31.9V222.4z"/>
	<path class="st4_marketing-1-7" d="M215.9,223.8h-34.5c-17.3,0-31.3-14-31.3-31.3v-1.2c0-17.3,14-31.3,31.3-31.3h34.5l0,0V223.8L215.9,223.8z"/>
	<path class="st1_marketing-1-7" d="M215.9,225.7H182c-18.7,0-33.9-15.2-33.9-33.8S163.3,158,182,158h33.9c1.1,0,1.9,0.9,1.9,1.9c0,0,0,0,0,0v63.9&#10;&#9;&#9;C217.8,224.8,217,225.7,215.9,225.7C215.9,225.7,215.9,225.7,215.9,225.7z M182,161.9c-16.6,0-30,13.4-30,30s13.4,30,30,30h32v-60&#10;&#9;&#9;H182z"/>
	<polygon class="st4_marketing-1-7" points="306.5,133.7 306.5,250 330.5,256.9 330.5,126.8 &#9;"/>
	<path class="st1_marketing-1-7" d="M330.5,258.8c-0.2,0-0.4,0-0.5-0.1l-24-6.9c-0.8-0.2-1.4-1-1.4-1.8V133.7c0-0.9,0.6-1.6,1.4-1.8l24-6.9&#10;&#9;&#9;c1-0.3,2.1,0.3,2.4,1.3c0.1,0.2,0.1,0.4,0.1,0.5v130.1c0,0.6-0.3,1.2-0.8,1.5C331.3,258.7,330.9,258.8,330.5,258.8z M308.4,248.6&#10;&#9;&#9;l20.2,5.8v-125l-20.2,5.8V248.6z"/>
	<path class="st1_marketing-1-7" d="M201.6,174.8h-21.2c-1.1-0.1-1.9-1-1.8-2.1c0.1-1,0.8-1.7,1.8-1.8h21.2c1.1-0.1,2,0.7,2.1,1.8&#10;&#9;&#9;c0.1,1.1-0.7,2-1.8,2.1C201.8,174.8,201.7,174.8,201.6,174.8L201.6,174.8z"/>
	<path class="st1_marketing-1-7" d="M201.6,182.8h-21.2c-1.1-0.1-1.9-1-1.8-2.1c0.1-1,0.8-1.7,1.8-1.8h21.2c1.1-0.1,2,0.7,2.1,1.8&#10;&#9;&#9;c0.1,1.1-0.7,2-1.8,2.1C201.8,182.8,201.7,182.8,201.6,182.8L201.6,182.8z"/>
	<path class="st1_marketing-1-7" d="M201.6,190.8h-21.2c-1.1-0.1-1.9-1-1.8-2.1c0.1-1,0.8-1.7,1.8-1.8h21.2c1.1-0.1,2,0.7,2.1,1.8&#10;&#9;&#9;c0.1,1.1-0.7,2-1.8,2.1C201.8,190.8,201.7,190.8,201.6,190.8L201.6,190.8z"/>
</g>
</svg>